<svg width="20" height="20" viewBox="0 0 20 20" fill="none" xmlns="http://www.w3.org/2000/svg">
<path  d="M13.1843 2.54317C13.3798 2.12411 13.1994 1.62165 12.763 1.46904C11.21 0.926066 9.53064 0.852741 7.93629 1.25831C7.48819 1.37229 7.26476 1.85713 7.4229 2.29162L9.30869 7.47277C9.56379 8.17366 10.539 8.21623 10.8542 7.54024L13.1843 2.54317ZM1.46904 7.23701C1.62165 6.80054 2.12411 6.62022 2.54317 6.81563L7.54024 9.14581C8.21623 9.46102 8.17366 10.4362 7.47277 10.6913L2.29162 12.5771C1.85712 12.7352 1.37229 12.5118 1.25831 12.0637C0.852741 10.4693 0.926066 8.78994 1.46904 7.23701ZM18.5309 12.763C18.3783 13.1995 17.8759 13.3798 17.4568 13.1844L12.4597 10.8542C11.7837 10.539 11.8263 9.56383 12.5272 9.30872L17.7084 7.42294C18.1428 7.2648 18.6277 7.48822 18.7417 7.93633C19.1472 9.53067 19.0739 11.2101 18.5309 12.763ZM7.237 18.5309C6.80053 18.3783 6.62021 17.8759 6.81562 17.4568L9.1458 12.4597C9.46102 11.7837 10.4362 11.8263 10.6913 12.5272L12.5771 17.7084C12.7352 18.1429 12.5118 18.6277 12.0637 18.7417C10.4693 19.1472 8.78993 19.0739 7.237 18.5309ZM6.97893 2.47552C6.82078 2.04103 6.33799 1.81324 5.92145 2.01396C4.43942 2.7281 3.20005 3.86377 2.35946 5.27792C2.1232 5.67538 2.30804 6.17619 2.7271 6.3716L7.72418 8.70178C8.40016 9.017 9.11981 8.35756 8.86471 7.65667L6.97893 2.47552ZM14.0785 17.9861C13.662 18.1868 13.1792 17.959 13.021 17.5245L11.1353 12.3433C10.8802 11.6425 11.5998 10.983 12.2758 11.2982L17.2729 13.6284C17.6919 13.8238 17.8768 14.3246 17.6405 14.7221C16.7999 16.1362 15.5605 17.2719 14.0785 17.9861ZM2.47558 13.0211C2.04109 13.1792 1.8133 13.662 2.01402 14.0785C2.72816 15.5606 3.86383 16.7999 5.27798 17.6405C5.67544 17.8768 6.17625 17.692 6.37166 17.2729L8.70184 12.2758C9.01706 11.5998 8.35762 10.8802 7.65673 11.1353L2.47558 13.0211ZM17.9859 5.92147C18.1867 6.33801 17.9589 6.82081 17.5244 6.97895L12.3432 8.86473C11.6423 9.11983 10.9829 8.40018 11.2981 7.7242L13.6283 2.72712C13.8237 2.30806 14.3245 2.12322 14.722 2.35948C16.1361 3.20007 17.2718 4.43944 17.9859 5.92147Z" fill="white"/>
</svg>
