<svg width="20" height="20" viewBox="0 0 20 20" fill="none" xmlns="http://www.w3.org/2000/svg">
<path d="M4.5752 4.95117C4.27332 4.95117 4.12238 4.75977 4.01301 4.61914C3.90144 4.47656 3.84457 4.41992 3.7352 4.41992C3.62582 4.41992 3.57113 4.47852 3.45738 4.61914C3.34582 4.75977 3.19488 4.95117 2.8952 4.95117C2.59332 4.95117 2.44238 4.75977 2.33301 4.61914C2.22145 4.47656 2.16457 4.41992 2.0552 4.41992C1.94582 4.41992 1.89113 4.47852 1.77738 4.61914C1.66582 4.75977 1.51488 4.95117 1.2152 4.95117C0.915508 4.95117 0.762383 4.75977 0.653008 4.61914C0.541445 4.47656 0.48457 4.41992 0.375195 4.41992C0.278945 4.41992 0.200195 4.34961 0.200195 4.26367C0.200195 4.17773 0.278945 4.10742 0.375195 4.10742C0.67707 4.10742 0.828008 4.29883 0.937383 4.43945C1.04895 4.58203 1.10582 4.63867 1.2152 4.63867C1.32457 4.63867 1.37926 4.58008 1.49301 4.43945C1.60457 4.29883 1.75551 4.10742 2.0552 4.10742C2.35488 4.10742 2.50801 4.29883 2.61738 4.43945C2.72895 4.58203 2.78582 4.63867 2.8952 4.63867C3.00457 4.63867 3.05926 4.58008 3.17301 4.43945C3.28457 4.29883 3.43551 4.10742 3.7352 4.10742C4.03488 4.10742 4.18801 4.29883 4.29738 4.43945C4.40894 4.58203 4.46582 4.63867 4.5752 4.63867C4.67145 4.63867 4.7502 4.70898 4.7502 4.79492C4.7502 4.88086 4.67145 4.95117 4.5752 4.95117ZM4.5752 5.92773C4.27332 5.92773 4.12238 5.73633 4.01301 5.5957C3.90144 5.45313 3.84457 5.39648 3.7352 5.39648C3.62582 5.39648 3.57113 5.45508 3.45738 5.5957C3.34582 5.73633 3.19488 5.92773 2.8952 5.92773C2.59332 5.92773 2.44238 5.73633 2.33301 5.5957C2.22145 5.45313 2.16457 5.39648 2.0552 5.39648C1.94582 5.39648 1.89113 5.45508 1.77738 5.5957C1.66582 5.73633 1.51488 5.92773 1.2152 5.92773C0.915508 5.92773 0.762383 5.73633 0.653008 5.5957C0.541445 5.45313 0.48457 5.39648 0.375195 5.39648C0.278945 5.39648 0.200195 5.32617 0.200195 5.24023C0.200195 5.1543 0.278945 5.08398 0.375195 5.08398C0.67707 5.08398 0.828008 5.27539 0.937383 5.41602C1.04895 5.55859 1.10582 5.61523 1.2152 5.61523C1.32457 5.61523 1.37926 5.55664 1.49301 5.41602C1.60457 5.27539 1.75551 5.08398 2.0552 5.08398C2.35488 5.08398 2.50801 5.27539 2.61738 5.41602C2.72895 5.55859 2.78582 5.61523 2.8952 5.61523C3.00457 5.61523 3.05926 5.55664 3.17301 5.41602C3.28457 5.27539 3.43551 5.08398 3.7352 5.08398C4.03488 5.08398 4.18801 5.27539 4.29738 5.41602C4.40894 5.55859 4.46582 5.61523 4.5752 5.61523C4.67145 5.61523 4.7502 5.68555 4.7502 5.77148C4.7502 5.85742 4.67145 5.92773 4.5752 5.92773ZM19.6252 13.9551C19.3233 13.9551 19.1724 13.7637 19.063 13.623C18.9514 13.4805 18.8946 13.4238 18.7852 13.4238C18.6758 13.4238 18.6211 13.4824 18.5074 13.623C18.3958 13.7637 18.2449 13.9551 17.9452 13.9551C17.6433 13.9551 17.4924 13.7637 17.383 13.623C17.2714 13.4805 17.2146 13.4238 17.1052 13.4238C16.9958 13.4238 16.9411 13.4824 16.8274 13.623C16.7158 13.7637 16.5649 13.9551 16.2652 13.9551C15.9655 13.9551 15.8124 13.7637 15.703 13.623C15.5914 13.4805 15.5346 13.4238 15.4252 13.4238C15.3289 13.4238 15.2502 13.3535 15.2502 13.2676C15.2502 13.1816 15.3289 13.1113 15.4252 13.1113C15.7271 13.1113 15.878 13.3027 15.9874 13.4434C16.0989 13.5859 16.1558 13.6426 16.2652 13.6426C16.3746 13.6426 16.4293 13.584 16.543 13.4434C16.6546 13.3027 16.8055 13.1113 17.1052 13.1113C17.4049 13.1113 17.558 13.3027 17.6674 13.4434C17.7789 13.5859 17.8358 13.6426 17.9452 13.6426C18.0546 13.6426 18.1093 13.584 18.223 13.4434C18.3346 13.3027 18.4855 13.1113 18.7852 13.1113C19.0849 13.1113 19.238 13.3027 19.3474 13.4434C19.4589 13.5859 19.5158 13.6426 19.6252 13.6426C19.7214 13.6426 19.8002 13.7129 19.8002 13.7988C19.8002 13.8848 19.7214 13.9551 19.6252 13.9551ZM19.6252 14.9316C19.3233 14.9316 19.1724 14.7402 19.063 14.5996C18.9514 14.457 18.8946 14.4004 18.7852 14.4004C18.6758 14.4004 18.6211 14.459 18.5074 14.5996C18.3958 14.7402 18.2449 14.9316 17.9452 14.9316C17.6433 14.9316 17.4924 14.7402 17.383 14.5996C17.2714 14.457 17.2146 14.4004 17.1052 14.4004C16.9958 14.4004 16.9411 14.459 16.8274 14.5996C16.7158 14.7402 16.5649 14.9316 16.2652 14.9316C15.9655 14.9316 15.8124 14.7402 15.703 14.5996C15.5914 14.457 15.5346 14.4004 15.4252 14.4004C15.3289 14.4004 15.2502 14.3301 15.2502 14.2441C15.2502 14.1582 15.3289 14.0879 15.4252 14.0879C15.7271 14.0879 15.878 14.2793 15.9874 14.4199C16.0989 14.5625 16.1558 14.6191 16.2652 14.6191C16.3746 14.6191 16.4293 14.5605 16.543 14.4199C16.6546 14.2793 16.8055 14.0879 17.1052 14.0879C17.4049 14.0879 17.558 14.2793 17.6674 14.4199C17.7789 14.5625 17.8358 14.6191 17.9452 14.6191C18.0546 14.6191 18.1093 14.5605 18.223 14.4199C18.3346 14.2793 18.4855 14.0879 18.7852 14.0879C19.0849 14.0879 19.238 14.2793 19.3474 14.4199C19.4589 14.5625 19.5158 14.6191 19.6252 14.6191C19.7214 14.6191 19.8002 14.6895 19.8002 14.7754C19.8002 14.8613 19.7214 14.9316 19.6252 14.9316Z" fill="white" />
<path d="M6.39062 3.12305C5.90719 3.12305 5.51562 2.77344 5.51562 2.3418C5.51562 1.91016 5.90719 1.56055 6.39062 1.56055C6.87406 1.56055 7.26562 1.91016 7.26562 2.3418C7.26562 2.77344 6.87406 3.12305 6.39062 3.12305ZM6.39062 1.87305C6.10187 1.87305 5.86562 2.08398 5.86562 2.3418C5.86562 2.59961 6.10187 2.81055 6.39062 2.81055C6.67937 2.81055 6.91562 2.59961 6.91562 2.3418C6.91562 2.08398 6.67937 1.87305 6.39062 1.87305Z" fill="white" />
<path d="M19.0105 18.1231H15.0534L15.0424 3.30472C15.0424 3.24612 15.0052 3.19144 14.9462 3.16409L12.3912 2.02933C12.3102 1.99222 12.2118 2.01956 12.1637 2.08792L11.7984 2.41409C11.6037 2.33206 11.363 2.36136 11.2012 2.50589L10.8621 2.80863C10.1293 2.44339 9.1843 2.53909 8.56305 3.09378C8.53023 3.12308 8.51273 3.16214 8.51273 3.20511C8.51273 3.24808 8.53023 3.28714 8.56305 3.31644L11.0371 5.52542C11.0699 5.55472 11.1137 5.57034 11.1618 5.57034C11.2099 5.57034 11.2537 5.55472 11.2865 5.52542C11.9077 4.97073 12.0149 4.12698 11.6059 3.47269L11.9449 3.16995C12.0434 3.08206 12.098 2.96488 12.098 2.83792C12.098 2.76761 12.0805 2.6973 12.0477 2.63675L12.3518 2.36527L14.6924 3.40628L14.7034 18.127H12.5793V15.4121H14.4168C14.4802 15.4121 14.5371 15.3828 14.5699 15.334C14.6005 15.2852 14.6005 15.2246 14.5677 15.1778L13.8677 14.1231C13.8371 14.0762 13.778 14.0469 13.7168 14.0469H11.3762V13.1289H13.7168C13.813 13.1289 13.8918 13.0586 13.8918 12.9727V11.8789C13.8918 11.793 13.813 11.7227 13.7168 11.7227H11.3762V11.3907H13.7168C13.813 11.3907 13.8918 11.3203 13.8918 11.2344V10.1407C13.8918 10.0547 13.813 9.98441 13.7168 9.98441H2.5168C2.42055 9.98441 2.3418 10.0547 2.3418 10.1407V11.2344C2.3418 11.3203 2.42055 11.3907 2.5168 11.3907H4.8793V11.7227H2.5168C2.42055 11.7227 2.3418 11.793 2.3418 11.8789V12.9727C2.3418 13.0586 2.42055 13.1289 2.5168 13.1289H4.8793V14.0469H2.5168C2.45555 14.0469 2.39867 14.0762 2.36586 14.1231L1.66586 15.1778C1.63305 15.2266 1.63305 15.2852 1.66367 15.334C1.6943 15.3828 1.75336 15.4121 1.8168 15.4121H3.6543V18.127H0.985547C0.889297 18.127 0.810547 18.1973 0.810547 18.2832C0.810547 18.3692 0.889297 18.4395 0.985547 18.4395H19.0105C19.1068 18.4395 19.1855 18.3692 19.1855 18.2832C19.1855 18.1973 19.109 18.1231 19.0105 18.1231ZM11.1552 5.18363L8.94148 3.20706C9.55836 2.76566 10.4662 2.80081 11.0393 3.31058C11.6124 3.8223 11.6496 4.63284 11.1552 5.18363ZM11.6977 2.94534L11.4199 3.19339L11.1727 2.97269L11.4505 2.72464C11.5184 2.66409 11.6299 2.66409 11.6977 2.72464C11.7305 2.75394 11.748 2.793 11.748 2.83597C11.748 2.87698 11.7305 2.91605 11.6977 2.94534ZM2.6918 11.0723V10.291H13.5418V11.0723H2.6918ZM11.0262 11.3848V11.7168H5.2293V11.3848H11.0262ZM2.6918 12.8106V12.0293H13.5418V12.8106H2.6918ZM11.0262 13.1231V14.041H5.2293V13.1231H11.0262ZM2.12523 15.0957L2.61742 14.3535H13.6184L14.1105 15.0957H2.12523ZM4.0043 15.4082H12.2293V18.1231H4.0043V15.4082Z" fill="white" />
<path d="M8.94117 3.207L9.63898 3.83005C10.0305 3.58396 10.3368 3.32419 10.3368 2.94919C9.8643 2.83591 9.34367 2.92185 8.94117 3.207ZM5.91586 14.5703C6.30961 14.5801 6.68367 14.8379 7.34211 14.7441C7.59367 14.707 7.87148 14.4961 8.54961 14.5351C9.03086 14.5625 9.64336 14.5254 10.0437 14.3535H5.4193C5.42148 14.541 5.71898 14.5664 5.91586 14.5703ZM3.08523 14.3535H2.61711L2.32617 14.7929C2.63461 14.7441 2.91898 14.6172 3.08523 14.3535ZM13.618 14.3535C13.618 14.3535 13.6399 14.6777 13.1302 14.6582C12.6205 14.6386 12.4849 14.5586 12.0059 14.5586C11.564 14.5586 11.3605 14.3515 11.3605 14.3515H13.618V14.3535Z" fill="white" />
</svg>
