<svg width="20" height="20" viewBox="0 0 20 20" fill="none" xmlns="http://www.w3.org/2000/svg">
<path d="M17.125 17.0417L12.3333 12.25C11.8889 12.6111 11.3958 12.8819 10.8542 13.0625C10.3125 13.2431 9.75 13.3333 9.16667 13.3333C8.58333 13.3333 8.02778 13.2465 7.5 13.0729C6.97222 12.8993 6.48611 12.6528 6.04167 12.3333L7.25 11.125C7.52778 11.2917 7.82639 11.4236 8.14583 11.5208C8.46528 11.6181 8.80556 11.6667 9.16667 11.6667C10.2083 11.6667 11.0937 11.3021 11.8229 10.5729C12.5521 9.84375 12.9167 8.95833 12.9167 7.91667C12.9167 6.875 12.5521 5.98958 11.8229 5.26042C11.0937 4.53125 10.2083 4.16667 9.16667 4.16667C8.20833 4.16667 7.37847 4.48958 6.67708 5.13542C5.97569 5.78125 5.56944 6.58333 5.45833 7.54167L6.5 6.5L7.66667 7.66667L4.58333 10.75L1.5 7.66667L2.66667 6.5L3.79167 7.58333C3.875 6.15278 4.43056 4.94792 5.45833 3.96875C6.48611 2.98958 7.72222 2.5 9.16667 2.5C10.6806 2.5 11.9618 3.02431 13.0104 4.07292C14.059 5.12153 14.5833 6.40278 14.5833 7.91667C14.5833 8.5 14.4931 9.06945 14.3125 9.625C14.1319 10.1806 13.8611 10.6667 13.5 11.0833L18.2917 15.875L17.125 17.0417Z" fill="white"/>
</svg>
