<svg width="20" height="20" viewBox="0 0 20 20" fill="none" xmlns="http://www.w3.org/2000/svg">
<path d="M17.0019 11.3515C16.5952 11.0301 16.3997 10.5183 16.4044 9.99991V9.99991V9.99991C16.3997 9.48188 16.5964 8.97064 17.0043 8.65129L18.1503 7.75407C18.2317 7.69184 18.2874 7.60176 18.3066 7.50106C18.3258 7.40035 18.3073 7.2961 18.2544 7.20824L16.5461 4.24574C16.4966 4.15688 16.4164 4.08919 16.3204 4.05542C16.2245 4.02165 16.1195 4.02413 16.0253 4.06241L14.6711 4.60832C14.1906 4.80201 13.6498 4.71678 13.2013 4.45759V4.45759C12.7535 4.19879 12.4099 3.77365 12.3373 3.26153L12.1336 1.82491C12.1195 1.72479 12.0694 1.63324 11.9927 1.56731C11.9161 1.50138 11.818 1.46558 11.7169 1.46657H8.29194C8.19083 1.46558 8.09281 1.50138 8.01615 1.56731C7.93949 1.63324 7.88942 1.72479 7.87527 1.82491L7.67166 3.26079C7.599 3.77316 7.25448 4.19798 6.80645 4.45695V4.45695C6.35835 4.71596 5.81818 4.80244 5.33789 4.60958L3.97527 4.06241C3.88104 4.02413 3.77606 4.02165 3.68013 4.05542C3.58419 4.08919 3.50392 4.15688 3.45444 4.24574L1.7461 7.20824C1.69328 7.2961 1.67469 7.40035 1.69391 7.50106C1.71313 7.60176 1.7688 7.69184 1.85027 7.75407L2.99269 8.65055C3.40033 8.97044 3.59695 9.48176 3.59194 9.99991V9.99991V9.99991C3.59669 10.518 3.4003 11.0294 2.99268 11.3493L1.85027 12.2457C1.7688 12.308 1.71313 12.3981 1.69391 12.4988C1.67469 12.5995 1.69328 12.7037 1.7461 12.7916L3.45444 15.7541C3.50392 15.8429 3.58419 15.9106 3.68013 15.9444C3.77606 15.9782 3.88104 15.9757 3.97527 15.9374L5.32945 15.3915C5.80991 15.1978 6.35072 15.283 6.79924 15.5422V15.5422C7.24708 15.801 7.5906 16.2262 7.66322 16.7383L7.86694 18.1749C7.88109 18.275 7.93116 18.3666 8.00782 18.4325C8.08448 18.4984 8.1825 18.5342 8.2836 18.5332H11.7003C11.8014 18.5342 11.8994 18.4984 11.9761 18.4325C12.0527 18.3666 12.1028 18.275 12.1169 18.1749L12.3206 16.7384C12.3932 16.2264 12.7375 15.8019 13.1852 15.5432V15.5432C13.6336 15.2841 14.1742 15.1979 14.6545 15.3915L16.0086 15.9374C16.1028 15.9757 16.2078 15.9782 16.3037 15.9444C16.3997 15.9106 16.48 15.8429 16.5294 15.7541L18.2378 12.7916C18.2906 12.7037 18.3092 12.5995 18.29 12.4988C18.2707 12.3981 18.2151 12.308 18.1336 12.2457L17.0019 11.3515ZM10.0003 12.9916C9.4084 12.9924 8.82958 12.8176 8.33706 12.4894C7.84453 12.1612 7.46043 11.6942 7.23336 11.1477C7.00629 10.6011 6.94645 9.99942 7.06141 9.41882C7.17638 8.83822 7.46098 8.30476 7.8792 7.88596C8.29743 7.46715 8.83048 7.1818 9.41092 7.06603C9.99136 6.95026 10.5931 7.00926 11.14 7.23557C11.6869 7.46188 12.1544 7.84533 12.4833 8.33739C12.8122 8.82946 12.9878 9.40803 12.9878 9.99991C12.9883 10.3926 12.9114 10.7815 12.7616 11.1445C12.6117 11.5074 12.3917 11.8372 12.1142 12.1151C11.8368 12.3929 11.5072 12.6134 11.1445 12.7638C10.7818 12.9142 10.3929 12.9916 10.0003 12.9916Z" fill="white"/>
</svg>
