<svg width="20" height="20" viewBox="0 0 20 20" fill="none" xmlns="http://www.w3.org/2000/svg">
<g>
<path d="M15.4595 4.65239L15.4458 4.64432L15.4141 4.63464C15.4268 4.64542 15.4428 4.65167 15.4595 4.65239Z" fill="white" />
<path d="M15.4662 4.6505C15.4638 4.65019 15.4614 4.64962 15.4591 4.6488C15.459 4.65039 15.459 4.65199 15.4591 4.65357C15.4617 4.65322 15.4642 4.65217 15.4662 4.6505Z" fill="white" />
<path d="M15.459 4.65253H15.461V4.65125L15.459 4.65253Z" fill="white" />
<path d="M15.6465 6.07861L15.6696 6.06543L15.6782 6.06058L15.686 6.05225C15.6714 6.05856 15.658 6.06751 15.6465 6.07861Z" fill="white" />
<path d="M15.4989 4.68355L15.4763 4.66202L15.4609 4.65369C15.4692 4.66823 15.4828 4.67896 15.4989 4.68355Z" fill="white" />
<path d="M9.81262 18.5486C9.79456 18.5564 9.77874 18.5686 9.7666 18.5841L9.78086 18.575C9.79056 18.5661 9.80427 18.5556 9.81262 18.5486Z" fill="white" />
<path d="M13.1144 17.8988C13.1144 17.8785 13.1044 17.8823 13.1068 17.9548C13.1068 17.949 13.1092 17.9431 13.1103 17.9375C13.1117 17.9245 13.1127 17.9118 13.1144 17.8988Z" fill="white" />
<path d="M12.7716 18.5486C12.7535 18.5564 12.7377 18.5686 12.7256 18.5841L12.7398 18.575C12.7495 18.5661 12.7633 18.5556 12.7716 18.5486Z" fill="white" />
<path d="M7.48788 18.703C7.47417 18.6911 7.45739 18.6833 7.43945 18.6804C7.45398 18.6874 7.46851 18.6944 7.47819 18.6997L7.48788 18.703Z" fill="white" />
<path d="M6.96344 18.2019C6.9613 18.1808 6.9548 18.1603 6.94434 18.1417C6.95175 18.161 6.95794 18.1808 6.9629 18.2008L6.96344 18.2019Z" fill="white" />
<path d="M10.4789 9.23903C9.76055 9.54657 8.94529 9.89527 7.88869 9.89527C7.44668 9.89439 7.00681 9.83375 6.58105 9.715L7.31183 17.2178C7.33769 17.5314 7.48055 17.8238 7.71203 18.0369C7.94351 18.25 8.24668 18.3683 8.56134 18.3683C8.56134 18.3683 9.59749 18.4221 9.94324 18.4221C10.3153 18.4221 11.4311 18.3683 11.4311 18.3683C11.7458 18.3683 12.0489 18.2499 12.2803 18.0368C12.5117 17.8236 12.6545 17.5314 12.6804 17.2178L13.4631 8.92692C13.1133 8.80746 12.7603 8.72809 12.3624 8.72809C11.6741 8.72782 11.1196 8.96487 10.4789 9.23903Z" fill="white" />
<path d="M4.31836 6.03809L4.33073 6.04966L4.33881 6.05451C4.33259 6.04833 4.32574 6.04282 4.31836 6.03809Z" fill="white" />
<path d="M16.8419 5.34557L16.7318 4.79049C16.6331 4.29246 16.409 3.82188 15.8977 3.64188C15.7339 3.58428 15.548 3.55955 15.4223 3.44034C15.2967 3.32116 15.2595 3.13604 15.2305 2.96438C15.1766 2.6493 15.1261 2.33396 15.0709 2.01944C15.0233 1.74902 14.9856 1.44526 14.8616 1.19719C14.7002 0.864088 14.3652 0.669287 14.0321 0.540407C13.8614 0.476691 13.6872 0.422791 13.5104 0.378971C12.6781 0.159417 11.8032 0.0786985 10.947 0.0326891C9.9194 -0.0240152 8.88903 -0.00693094 7.86384 0.0838105C7.10079 0.153228 6.2971 0.237176 5.57199 0.501124C5.30697 0.597717 5.03386 0.713681 4.83235 0.918438C4.58507 1.17001 4.50436 1.55907 4.68489 1.87279C4.81324 2.09557 5.03064 2.25298 5.26123 2.35711C5.56157 2.49127 5.87524 2.59337 6.19702 2.66169C7.09299 2.85972 8.02098 2.93747 8.93632 2.97057C9.95086 3.01151 10.967 2.97833 11.9767 2.87127C12.2264 2.84383 12.4756 2.81091 12.7244 2.77254C13.0174 2.7276 13.2055 2.34446 13.1192 2.07754C13.0158 1.75845 12.7381 1.63468 12.4242 1.68285C12.3779 1.6901 12.3319 1.69683 12.2856 1.70355L12.2522 1.7084C12.1459 1.72186 12.0395 1.7344 11.9331 1.74607C11.7134 1.76974 11.4931 1.78912 11.2723 1.80419C10.7778 1.83862 10.2819 1.8545 9.7863 1.85531C9.29929 1.85531 8.81202 1.84158 8.32609 1.80957C8.10439 1.79504 7.88322 1.77656 7.66259 1.75414C7.56223 1.74364 7.46214 1.73262 7.36206 1.72023L7.2668 1.70813L7.24609 1.70518L7.14734 1.69091C6.94555 1.6605 6.74375 1.62554 6.54411 1.58328C6.52397 1.57881 6.50594 1.56762 6.49302 1.55151C6.4801 1.53542 6.47307 1.5154 6.47307 1.49477C6.47307 1.47413 6.4801 1.45411 6.49302 1.43802C6.50594 1.42192 6.52397 1.41071 6.54411 1.40624H6.54788C6.72089 1.36938 6.89522 1.3379 7.07011 1.31046C7.12842 1.30131 7.18689 1.29234 7.24554 1.28355H7.24716C7.35666 1.27629 7.46672 1.25665 7.57568 1.24373C8.52376 1.14511 9.47748 1.11149 10.4302 1.1431C10.8927 1.15656 11.3549 1.18373 11.8153 1.23055C11.9143 1.24077 12.0128 1.25154 12.1112 1.26364C12.1489 1.26822 12.1868 1.2736 12.2248 1.27817L12.3012 1.2892C12.524 1.32239 12.7456 1.36266 12.966 1.41001C13.2927 1.48104 13.7122 1.50418 13.8574 1.86203C13.9037 1.97557 13.9247 2.10177 13.9503 2.22095L13.9828 2.37298C13.9837 2.3757 13.9843 2.3785 13.9847 2.38131C14.0617 2.74006 14.1387 3.09881 14.2158 3.45756C14.2215 3.48407 14.2216 3.51145 14.2162 3.538C14.2108 3.56457 14.2 3.58971 14.1845 3.61192C14.1689 3.6341 14.149 3.65285 14.1258 3.66699C14.1027 3.68113 14.0769 3.69034 14.0501 3.69407H14.0479L14.0009 3.70053L13.9543 3.70671C13.8069 3.72591 13.6592 3.74385 13.5114 3.76053C13.2203 3.79371 12.9287 3.82241 12.6367 3.84663C12.0564 3.89487 11.475 3.92654 10.8924 3.94161C10.5955 3.94949 10.2988 3.95318 10.0021 3.95263C8.82117 3.95171 7.64128 3.88307 6.46823 3.74707C6.34123 3.73201 6.21424 3.71586 6.08723 3.69945C6.18572 3.7121 6.01566 3.68976 5.98123 3.68493C5.90051 3.67362 5.81979 3.66188 5.73907 3.64968C5.46813 3.60904 5.19881 3.559 4.92839 3.51514C4.60149 3.46133 4.28884 3.48824 3.99314 3.64968C3.75042 3.7825 3.55397 3.98618 3.43 4.23354C3.30246 4.49722 3.26452 4.7843 3.20748 5.06763C3.15044 5.35095 3.06165 5.65579 3.09528 5.94665C3.16766 6.57437 3.6065 7.0845 4.23772 7.19859C4.83153 7.30621 5.42858 7.39339 6.02723 7.46765C8.37891 7.75567 10.7547 7.79012 13.1138 7.57043C13.3059 7.55249 13.4977 7.53295 13.6893 7.51177C13.7491 7.50521 13.8097 7.51209 13.8665 7.53195C13.9233 7.55181 13.975 7.58413 14.0177 7.62654C14.0604 7.66894 14.0931 7.72038 14.1134 7.77704C14.1337 7.83373 14.141 7.89423 14.1348 7.95411L14.0751 8.53475C13.9548 9.70802 13.8344 10.8812 13.714 12.0543C13.5885 13.2863 13.4621 14.5181 13.3349 15.7498C13.2991 16.0968 13.2632 16.4436 13.2273 16.7903C13.1929 17.1318 13.188 17.484 13.1232 17.8214C13.0209 18.352 12.6617 18.6779 12.1376 18.797C11.6574 18.9063 11.1669 18.9637 10.6745 18.9681C10.1285 18.9711 9.58289 18.9468 9.03696 18.9498C8.45416 18.9531 7.74035 18.8993 7.29049 18.4655C6.89522 18.0846 6.8406 17.488 6.7868 16.9722C6.71505 16.2893 6.64393 15.6066 6.57343 14.9239L6.17791 11.1277L5.92204 8.67143C5.91773 8.63081 5.91343 8.59071 5.90939 8.5498C5.87871 8.25681 5.67127 7.96999 5.34436 7.98479C5.06454 7.99715 4.74651 8.23501 4.77934 8.5498L4.96902 10.3708L5.36131 14.1377C5.47307 15.2076 5.58454 16.2777 5.69576 17.3481C5.71729 17.5531 5.73746 17.7587 5.76006 17.9637C5.88303 19.0841 6.73863 19.6879 7.7982 19.8579C8.41704 19.9575 9.05094 19.978 9.67893 19.9881C10.484 20.0011 11.2971 20.0321 12.0889 19.8862C13.2623 19.6708 14.1427 18.8874 14.2683 17.6721C14.3042 17.3212 14.3401 16.9703 14.3759 16.6192C14.4952 15.4583 14.6143 14.2973 14.7332 13.1362L15.1223 9.34247L15.3007 7.6038C15.3096 7.51758 15.346 7.43651 15.4045 7.3726C15.4631 7.30869 15.5406 7.26532 15.6257 7.2489C15.9612 7.18352 16.282 7.07185 16.5206 6.81651C16.9005 6.40998 16.9761 5.87992 16.8419 5.34557ZM4.2205 5.72064C4.22561 5.71822 4.21619 5.76206 4.21215 5.78252C4.21135 5.75157 4.21296 5.72413 4.2205 5.72064ZM4.25305 5.97248C4.25574 5.97059 4.26381 5.98136 4.27215 5.99428C4.25951 5.98242 4.25144 5.97356 4.25278 5.97248H4.25305ZM4.28507 6.01471C4.30283 6.04674 4.29664 6.03436 4.28507 6.01471ZM4.34938 6.06691H4.35099C4.35099 6.0688 4.35395 6.07068 4.35503 6.07257C4.35324 6.07049 4.35126 6.0686 4.34911 6.06691H4.34938ZM15.6101 5.98888C15.4896 6.1035 15.308 6.15678 15.1285 6.18342C13.1159 6.48208 11.074 6.63329 9.03937 6.56657C7.58321 6.51679 6.1424 6.35507 4.70078 6.1514C4.55951 6.13149 4.40642 6.10566 4.30929 6.00153C4.12632 5.80511 4.21619 5.4096 4.26381 5.17229C4.3074 4.95489 4.39081 4.66511 4.64938 4.63417C5.05297 4.58682 5.52167 4.75712 5.92096 4.81767C6.40168 4.89102 6.8842 4.94977 7.3685 4.9939C9.43543 5.18225 11.5371 5.15292 13.5948 4.8774C13.9699 4.82699 14.3436 4.76843 14.716 4.7017C15.0478 4.64224 15.4156 4.53059 15.616 4.87417C15.7535 5.10826 15.7718 5.42144 15.7506 5.68593C15.744 5.80116 15.6937 5.90954 15.6098 5.98888H15.6101Z" fill="white" />
</g>
</svg>
