<svg width="20" height="20" viewBox="0 0 20 20" fill="none" xmlns="http://www.w3.org/2000/svg">
<path fill-rule="evenodd" clip-rule="evenodd" d="M1 10.2005C1 11.6761 1.38249 12.173 2.14748 13.1669C3.67496 15.1512 6.23668 17.401 10.0007 17.401C13.7646 17.401 16.3263 15.1512 17.8538 13.1669C18.6188 12.173 19.0013 11.6761 19.0013 10.2005C19.0013 8.72495 18.6188 8.22806 17.8538 7.2342C16.3263 5.24977 13.7646 3 10.0007 3C6.23668 3 3.67496 5.24977 2.14748 7.2342C1.38249 8.22806 1 8.72495 1 10.2005ZM10.0007 6.82528C8.13655 6.82528 6.62541 8.33642 6.62541 10.2005C6.62541 12.0646 8.13655 13.5758 10.0007 13.5758C11.8648 13.5758 13.3759 12.0646 13.3759 10.2005C13.3759 8.33642 11.8648 6.82528 10.0007 6.82528Z" fill="white"/>
<path d="M7.97559 10.2006C7.97559 9.08214 8.88231 8.17542 10.0007 8.17542C11.1192 8.17542 12.0259 9.08214 12.0259 10.2006C12.0259 11.319 11.1192 12.2257 10.0007 12.2257C8.88231 12.2257 7.97559 11.319 7.97559 10.2006Z" fill="white" stroke="white"/>
<rect x="2.22168" y="3.63605" width="2" height="20" rx="1" transform="rotate(-45 2.22168 3.63605)" fill="white"/>
</svg>
