<svg width="20" height="20" viewBox="0 0 20 20" fill="none" xmlns="http://www.w3.org/2000/svg">
<g clip-path="url(#clip0_352_794)">
<path fill-rule="evenodd" clip-rule="evenodd" d="M10.0003 0.893688C10.2865 0.893014 10.566 0.982582 10.799 1.14825C12.1492 2.10251 14.7399 4.2043 14.7413 6.31081C14.7399 8.69343 12.7425 15.7403 12.096 17.9572C12.0385 18.1532 11.9188 18.3252 11.7549 18.447C11.5909 18.5689 11.3918 18.6341 11.1875 18.6327L10.0009 18.634L8.81503 18.6293C8.61061 18.6307 8.41132 18.5654 8.24729 18.4434C8.08326 18.3214 7.96341 18.1493 7.90589 17.9532C7.25871 15.7369 5.26063 8.69073 5.25996 6.30744C5.25928 4.20295 7.85134 2.10251 9.20158 1.14825C9.43459 0.982581 9.71406 0.893014 10.0003 0.893688ZM2.58035 13.5826L5.04445 10.6592L6.24991 15.4877L4.10097 17.1868C3.95996 17.2936 3.79189 17.3589 3.61575 17.3752C3.43961 17.3915 3.26241 17.3582 3.10418 17.2792C2.94594 17.2001 2.81297 17.0783 2.72029 16.9277C2.62761 16.777 2.5789 16.6034 2.57968 16.4265L2.58035 13.5826ZM14.9561 10.6619L17.4209 13.5846L17.4222 16.4292C17.4221 16.6054 17.3729 16.7781 17.2802 16.9279C17.1874 17.0777 17.0548 17.1988 16.8971 17.2774C16.7394 17.3561 16.563 17.3893 16.3875 17.3733C16.212 17.3573 16.0445 17.2927 15.9036 17.1868L13.7291 15.5807L14.9568 10.6626L14.9561 10.6619ZM11.3397 5.91416C11.6952 6.26958 11.8948 6.75164 11.8948 7.25429C11.8948 7.75694 11.6952 8.23901 11.3397 8.59443C10.9843 8.94986 10.5023 9.14954 9.9996 9.14954C9.49695 9.14954 9.01489 8.94986 8.65946 8.59443C8.30404 8.23901 8.10436 7.75694 8.10436 7.25429C8.10436 6.75165 8.30404 6.26958 8.65946 5.91416C9.01489 5.55873 9.49695 5.35905 9.9996 5.35905C10.5023 5.35905 10.9843 5.55873 11.3397 5.91416Z" fill="white"/>
</g>
<defs>
<clipPath id="clip0_352_794">
<rect width="20" height="20" fill="white"/>
</clipPath>
</defs>
</svg>
